PathFileType	4	(X/Y/Z)	Kaydara	
DataRate	CameraRate	NumFrames	NumMarkers	Units	OrigDataRate	OrigDataStartFrame	OrigNumFrames	
120.00	120.00	4	72	mm	120.00	235	268	
Frame#	Time	Hips			RightUpLeg			RightLeg			RightFoot			RightFoot_End			LeftUpLeg			LeftLeg			LeftFoot			LeftFoot_End			Spine			Spine1			Spine2			Spine3			Neck			Head			Head_End			RightShoulder			RightArm			RightForeArm			RightHand			RightHandThumb1			RightHandThumb2			RightHandThumb3			RightHandThumb3_End			RightInHandIndex			RightHandIndex1			RightHandIndex2			RightHandIndex3			RightHandIndex3_End			RightInHandMiddle			RightHandMiddle1			RightHandMiddle2			RightHandMiddle3			RightHandMiddle3_End			RightInHandRing			RightHandRing1			RightHandRing2			RightHandRing3			RightHandRing3_End			RightInHandPinky			RightHandPinky1			RightHandPinky2			RightHandPinky3			RightHandPinky3_End			LeftShoulder			LeftArm			LeftForeArm			LeftHand			LeftHandThumb1			LeftHandThumb2			LeftHandThumb3			LeftHandThumb3_End			LeftInHandIndex			LeftHandIndex1			LeftHandIndex2			LeftHandIndex3			LeftHandIndex3_End			LeftInHandMiddle			LeftHandMiddle1			LeftHandMiddle2			LeftHandMiddle3			LeftHandMiddle3_End			LeftInHandRing			LeftHandRing1			LeftHandRing2			LeftHandRing3			LeftHandRing3_End			LeftInHandPinky			LeftHandPinky1			LeftHandPinky2			LeftHandPinky3			LeftHandPinky3_End			
		X1	Y1	Z1	X2	Y2	Z2	X3	Y3	Z3	X4	Y4	Z4	X5	Y5	Z5	X6	Y6	Z6	X7	Y7	Z7	X8	Y8	Z8	X9	Y9	Z9	X10	Y10	Z10	X11	Y11	Z11	X12	Y12	Z12	X13	Y13	Z13	X14	Y14	Z14	X15	Y15	Z15	X16	Y16	Z16	X17	Y17	Z17	X18	Y18	Z18	X19	Y19	Z19	X20	Y20	Z20	X21	Y21	Z21	X22	Y22	Z22	X23	Y23	Z23	X24	Y24	Z24	X25	Y25	Z25	X26	Y26	Z26	X27	Y27	Z27	X28	Y28	Z28	X29	Y29	Z29	X30	Y30	Z30	X31	Y31	Z31	X32	Y32	Z32	X33	Y33	Z33	X34	Y34	Z34	X35	Y35	Z35	X36	Y36	Z36	X37	Y37	Z37	X38	Y38	Z38	X39	Y39	Z39	X40	Y40	Z40	X41	Y41	Z41	X42	Y42	Z42	X43	Y43	Z43	X44	Y44	Z44	X45	Y45	Z45	X46	Y46	Z46	X47	Y47	Z47	X48	Y48	Z48	X49	Y49	Z49	X50	Y50	Z50	X51	Y51	Z51	X52	Y52	Z52	X53	Y53	Z53	X54	Y54	Z54	X55	Y55	Z55	X56	Y56	Z56	X57	Y57	Z57	X58	Y58	Z58	X59	Y59	Z59	X60	Y60	Z60	X61	Y61	Z61	X62	Y62	Z62	X63	Y63	Z63	X64	Y64	Z64	X65	Y65	Z65	X66	Y66	Z66	X67	Y67	Z67	X68	Y68	Z68	X69	Y69	Z69	X70	Y70	Z70	X71	Y71	Z71	X72	Y72	Z72	

235	1.95	4446.805	859.65103	-201.189	4469.086480930048	836.5000928472066	-240.5579646811386	4407.177413303404	431.35651721951086	-266.0951132226128	4506.684087639621	85.88300931692393	-428.9723139114468	4507.001440750957	-23.137840393078793	-305.206972916212	4430.884827161995	854.1003434213617	-148.08379022877557	4303.674811551256	467.17003923029904	-52.96767303453083	4224.96457399509	83.61728085044791	88.84479754651937	4289.403666323041	21.710730394309458	255.05704671988624	4417.592728705719	986.4536933058217	-258.8291539184454	4373.8736318094125	1063.629416231015	-297.4988636886306	4323.43788869948	1141.3818665134704	-336.7516607621702	4267.6245533886695	1210.6155244790402	-373.187111857755	4207.228178678848	1284.3372854825254	-407.7943184560383	4161.915748512308	1358.1955387763417	-373.5170715719339	4143.00729243969	1454.756737649014	-252.36407674073263	4228.80569621573	1259.5591966488012	-405.4884106354962	4243.451552121098	1250.0287468901047	-429.7511891698859	4330.981633255437	1119.8570359501794	-357.7909654026551	4364.413483982045	1131.172610378309	-409.1215571286031	4377.1219538636105	1164.120508995351	-405.15867740331186	4388.168571085613	1182.263580262168	-413.45060491949306	4395.4818484837815	1190.861369249739	-420.12931782338376	4401.253889046123	1194.5753847170495	-426.4706039182033	4377.193448080897	1153.3413160512882	-407.0325538073128	4394.1640963219415	1169.3476083274604	-411.5420116592165	4404.551975898264	1176.9096223127203	-420.04253658356686	4409.221908653672	1181.694117868157	-427.1842484592216	4411.8810113896525	1185.7103585204013	-434.3480104405053	4375.5027759103805	1141.6340739068703	-409.58980158525156	4391.1413515885615	1150.9147000496662	-415.3698744861993	4402.196689681696	1157.5652259587825	-424.9751300150596	4407.696470266934	1162.5692096343155	-433.7494631873219	4410.540707372114	1166.5901873012106	-441.6647848290818	4373.8905806296825	1132.967565297921	-411.2337794907835	4386.55123688926	1133.8000677225803	-417.70158548576785	4395.876204289841	1137.9454014458986	-426.40175600421196	4401.0160661297305	1141.8952104132031	-435.039591512781	4403.612119715065	1145.2603879062426	-442.56458431629136	4371.419985269659	1122.4119214840725	-413.3732108134133	4381.566082699627	1116.7171427613976	-420.4659919503491	4388.492798255964	1117.4566471470814	-427.91693071652026	4391.980436093036	1119.0896566490126	-434.4516123341209	4394.129682277921	1121.352417963737	-441.25231988394063	4225.639872297356	1262.0319307159778	-387.21331219892147	4225.826029329501	1243.2809059697852	-357.57636580511735	4275.571038949474	1140.9786659930696	-393.392935131551	4316.39292721785	1124.0285637063969	-366.06348796417893	4325.4656935837975	1155.4394531649768	-367.8350907071611	4339.4330648364485	1161.1136237678202	-370.8425587461682	4348.598749435245	1161.5785473677925	-373.7796190293643	4355.75970164753	1158.9834661698624	-376.9489896380947	4323.74882066063	1147.7828726930838	-371.22668608109194	4335.237720699603	1162.6654569021155	-381.3406750334979	4346.10430222947	1162.553221269417	-387.26609050699875	4354.0018297875995	1158.4222544768327	-388.86780003921257	4361.308779239057	1152.2636506806539	-388.789086465552	4321.959071274384	1137.2843603042124	-373.11365577381804	4332.196107512464	1146.1247225144496	-383.9995138723804	4343.7838749480525	1144.555648753802	-390.680107217857	4353.182472125222	1138.877593128787	-392.71557438158044	4361.114651735108	1131.8014824276531	-392.67954611337944	4320.370898368429	1129.5738533637523	-374.2075242589067	4328.077325902799	1131.0562994449765	-384.9680576011382	4337.885675858742	1128.1952224667407	-390.9930556704321	4346.796518965088	1121.9251584060617	-393.0637849529825	4354.181387816511	1114.8959863530285	-393.08078180635806	4318.448170461286	1119.5747169836552	-375.0269881826563	4324.2323417747175	1115.0649365116508	-385.4681041430605	4331.59820607352	1110.4368118417706	-390.56104013648485	4337.861607409568	1104.7328772696285	-392.2012410496801	4344.267458960983	1097.8555435488404	-392.2910006686091
236	1.958	4446.805	859.65103	-201.189	4468.92058345645	836.3561113953782	-240.77248853503457	4407.681321042276	431.07634313792414	-265.9358146578704	4507.434559446393	85.96460744331839	-429.7282710590006	4507.949284849406	-22.92049864340398	-305.80855914633656	4431.084677801389	854.2317362665968	-147.90256774268374	4304.1932334277035	467.2753734596917	-52.52214168833067	4225.139596814847	83.67668779770868	88.92095833202451	4289.883897045123	21.476141410370268	254.8869303161394	4417.4541704023495	986.5174960432207	-258.6703246341366	4373.747628684503	1063.7180312446085	-297.31968797202	4323.348268058331	1141.503156832657	-336.5687364360836	4267.595025888418	1210.779854885173	-373.02386651496306	4207.219579067129	1284.4783680395303	-407.68172792803955	4161.846341093522	1358.2965395757872	-373.5228487839432	4142.75757444634	1454.8119251787489	-252.3915348721184	4228.801648863251	1259.5783905609237	-405.4713287239776	4243.553480764003	1249.3572449088272	-430.19190582399006	4329.688304090104	1119.4753919679379	-357.3717120782241	4360.2106405742215	1128.9261375730873	-409.2631535309791	4373.649550508313	1160.9609652135946	-406.3648303208336	4384.361401330855	1178.4723478507751	-415.6018848791613	4391.271413076199	1186.7112078231	-422.8077213935525	4396.561722936405	1190.1952753233627	-429.47632582587323	4373.239608645875	1150.3718462757497	-407.85116851145443	4389.693675160343	1165.6447541635664	-412.9758158318351	4399.393917216053	1172.784226935647	-421.98662113594554	4403.634899641404	1177.345178056752	-429.54970296320136	4405.937984892485	1181.2027986884127	-437.1324713834395	4371.088580995929	1138.9145543430989	-410.03443837767884	4385.974385500494	1147.6150327897788	-416.21224074640986	4396.219897269818	1153.8399512657063	-426.3230751087027	4401.173623895154	1158.5912574789265	-435.5811884067959	4403.614438443395	1162.4469501365554	-443.94302563602923	4369.166444085732	1130.4428424428136	-411.39693382358223	4380.889609091237	1130.9230267282283	-417.97224751307266	4389.449100085423	1134.7345722167388	-427.06010233850134	4394.030583321159	1138.4603947430273	-436.1364469997316	4396.232311954094	1141.679517576867	-444.06794434936256	4366.3369128929035	1120.1369633014428	-413.20647593358285	4375.408802940433	1114.2710771683794	-420.1894222350884	4381.633598539996	1114.8028301993586	-427.8676919516944	4384.670921905955	1116.3012615540913	-434.6820192704761	4386.446096108753	1118.4512162378453	-441.81968575020414	4225.628287501115	1262.3237052960224	-386.9771403198064	4225.612119758644	1243.8199197879787	-356.6885845094326	4273.831097122099	1140.7945748906866	-392.2494691052583	4313.22427607168	1122.5413780975805	-364.44006187108414	4321.536397897271	1153.4984138080695	-367.26098683663776	4335.791605004195	1159.1334222877838	-370.8696354990061	4345.284342088047	1159.5980046224322	-374.0827393410599	4352.826249451553	1157.0256774959353	-377.36022828414207	4320.127670219675	1145.8556026163387	-370.25149106557313	4331.723376427022	1160.3436445524235	-380.76704187819524	4343.06974126121	1160.1765475174955	-386.8977352242258	4351.376688310455	1156.1407452662493	-388.67137023284465	4359.097480271337	1150.148106764772	-388.7648436994915	4318.697816165668	1135.4545128158636	-371.73305830626674	4329.233579758065	1143.9626841479776	-382.79132653330896	4341.392533529196	1142.3481545656443	-389.641031622364	4351.307945211678	1136.7918259375713	-391.8575821024465	4359.7040589645985	1129.9006731760223	-391.9971534085263	4317.357915405435	1127.820769822318	-372.5301635114923	4325.538018902311	1129.0659017834814	-383.1873080893563	4335.892483029505	1126.1804797562004	-389.30333379827937	4345.327466998235	1120.035943290736	-391.51879585626983	4353.16069768468	1113.1845222094253	-391.68671488369347	4315.743985893874	1117.9383440401484	-372.99674005750126	4322.142051252671	1113.2755660716587	-383.1252710510466	4330.018482033346	1108.652827562633	-388.20360518689426	4336.699631528956	1103.0524887542806	-389.9070518153166	4343.523053631421	1096.3395401901678	-390.10614607426896
237	1.967	4446.805	859.65103	-201.189	4468.751707991521	836.1914168133121	-241.0114558574433	4408.120798386502	430.7731912996401	-265.8957036743846	4508.066286602537	85.96066241782376	-430.5653291197005	4508.918708803917	-22.768428891635896	-306.43977160758203	4431.284021695613	854.3809468075597	-147.70034551975183	4304.750992554192	467.3771540444261	-52.10480591552335	4225.379952065556	83.73949605974127	89.00257498265337	4290.48717338347	21.28291025550279	254.7105571117483	4417.330979096146	986.595217342941	-258.4949541078667	4373.633008716557	1063.8120099930472	-297.14141992516016	4323.261504915608	1141.615375905726	-336.41130875725275	4267.553668100182	1210.912163744045	-372.91924775831006	4207.179958452791	1284.5660603425556	-407.6610385145625	4161.7435091777925	1358.348832910782	-373.6218994867035	4142.485304823783	1454.8159051238695	-252.49620858815044	4228.781692092878	1259.5367102448329	-405.5619560828751	4243.6147253452045	1248.55999169366	-430.79458617453406	4328.210777589328	1118.9218216135498	-357.1655126150098	4355.809023592415	1126.4846034835389	-409.12801727728316	4369.793013964561	1157.5012554481639	-407.29134282341164	4380.042893434757	1174.3844950474552	-417.3688181653133	4386.485660211349	1182.2821248969956	-425.0191183759036	4391.261952367711	1185.564027950801	-431.93779680743353	4368.972325737986	1147.1395738587682	-408.3618351644237	4384.828036220236	1161.6649236755272	-413.98801588939017	4393.78645850293	1168.412523828101	-423.3932414483289	4397.5526026078705	1172.7799391901995	-431.30223721470753	4399.453457594171	1176.5111587077067	-439.23924617006475	4366.430842885834	1135.9760745443266	-410.1468374501126	4380.521924475445	1144.1062834769152	-416.5983848994239	4389.907978154886	1149.9449416423595	-427.0854894790794	4394.264843419963	1154.482597142148	-436.73496484725894	4396.253884551441	1158.209630159025	-445.47177971497035	4364.250352726508	1127.7301808835018	-411.21387717319726	4375.043553625188	1127.892907698306	-417.77429373055395	4382.804075489603	1131.4109594261652	-427.1343732979634	4386.783358867331	1134.9536259800382	-436.5586201999356	4388.54775833703	1138.0626409934785	-444.8286653534173	4361.12279202521	1117.7127111048671	-412.6784568216694	4369.165293073095	1111.7304548867824	-419.43093305921735	4374.676552024772	1112.0959329373973	-427.24031358875294	4377.238951816542	1113.4940232578904	-434.2663765772336	4378.606191698676	1115.565578489516	-441.6797554705364	4225.586812138306	1262.5847953855994	-386.79398783743716	4225.341168906095	1244.3813775356866	-355.7292897923994	4272.050524255723	1140.5714876798647	-390.9260160364095	4310.273452351924	1120.9767737110358	-362.63007189558516	4317.738009214216	1151.3308286897966	-366.40791666331046	4332.163316633036	1156.8756880819308	-370.681806953945	4341.909183712788	1157.3203708293643	-374.23444589681515	4349.777322661623	1154.7681368973863	-377.68913430207516	4316.662844454655	1143.738220967	-369.0455833819386	4328.281932401614	1157.7492133696926	-380.01266272199683	4340.026154133962	1157.507531445251	-386.44187724917094	4348.678385077409	1153.5687318658602	-388.45824595955736	4356.751029265839	1147.7530912983661	-388.79117444328807	4315.616599911513	1133.4825959165807	-370.1741374563316	4326.382554861036	1141.6040765086116	-381.4818726256816	4339.0266668499025	1139.929222579383	-388.609260023497	4349.383132744503	1134.5000316571611	-391.09559577692073	4358.176138210202	1127.80746080908	-391.4859619198961	4314.5441326738655	1125.9613692203725	-370.70975708690395	4323.153938697775	1126.950517168728	-381.3618477285476	4333.983083758401	1124.0346805870768	-387.67038971308614	4343.871016589089	1118.0245498384331	-390.1197866219823	4352.090465468339	1111.3654235596737	-390.51105619241	4313.261308865853	1116.2415739670257	-370.86628458509665	4320.247596127624	1111.4359679360318	-380.79730381842234	4328.583119223702	1106.8245880104507	-385.9525783200826	4335.632859402048	1101.3395608570756	-387.7893049690329	4342.820397269105	1094.8068967053282	-388.1647538944245
238	1.975	4446.805	859.65103	-201.189	4468.5812075237045	836.0099512052481	-241.26892723481345	4408.479771717575	430.4547844851619	-265.96541534730886	4508.574785018422	85.88265467520077	-431.46166479246233	4509.880641756908	-22.677467925236723	-307.0953006482051	4431.481219872431	854.5449068230605	-147.48149642549865	4305.340367648022	467.4753556376368	-51.71282589704856	4225.68139577397	83.80243563012657	89.08751934704435	4291.194516154503	21.12490191111095	254.53126366699874	4417.224331217723	986.6827971931069	-258.31025087320916	4373.530774231762	1063.9069401314841	-296.9708952056989	4323.1781602751325	1141.7141412074948	-336.2846798094717	4267.500254564051	1211.0086022747198	-372.87538016559813	4207.109712678015	1284.5984979260577	-407.73044210289413	4161.6053033472335	1358.348876386623	-373.81063024416187	4142.192251447199	1454.7660571147092	-252.67491765478488	4228.74358113512	1259.4339222371107	-405.75546481959225	4243.628158935082	1247.6529119046431	-431.53528650467604	4326.575896298527	1118.1997553049048	-357.1639715573433	4351.344087533472	1123.895586968598	-408.7537552487627	4365.6918795267275	1153.8298309156844	-407.9449281752396	4375.383295997757	1170.1064325628668	-418.7410656822656	4381.318512327178	1177.6881669831969	-426.74657727922107	4385.570190477836	1180.797887562774	-433.83710896964266	4364.537865684887	1143.720584034518	-408.587284516551	4379.746392594178	1157.5038707959197	-414.5985738500631	4387.941541417371	1163.8967648521004	-424.28089110116434	4391.2082682952405	1168.1031883326946	-432.4555949087929	4392.678966483616	1171.7413091357164	-440.6755588633457	4361.681362129292	1132.8804445717672	-409.9642163248371	4374.970895003492	1140.4617270260344	-416.57065967759235	4383.484207799346	1145.9586061709208	-427.3050445606151	4387.2194179360795	1150.3237575222456	-437.2486552168985	4388.728491529363	1153.9594854318207	-446.2822242689376	4359.297098239877	1124.8808484201245	-410.7321619356602	4369.201710303931	1124.7622336635118	-417.16893596161606	4376.162047366754	1128.0295429023206	-426.68801357228824	4379.520717908351	1131.430856920104	-436.3659556576083	4380.823886192108	1134.465888673165	-444.900797811627	4355.935521960066	1115.1773572778009	-411.84846655237243	4363.026162339646	1109.1267162327504	-418.2697137698776	4367.838895699517	1109.366208627505	-426.11876334277406	4369.920673743511	1110.6973788427356	-433.2874725677806	4370.863255953429	1112.724221059876	-440.91101726775173	4225.517570227222	1262.810043247095	-386.667899583016	4225.02840316968	1244.9553549819846	-354.7297344551606	4270.281071957316	1140.3134398978987	-389.4649499595931	4307.585902915683	1119.3527301918803	-360.707258581014	4314.145829912919	1148.9873863419518	-365.33101847692683	4328.62297097424	1154.3975961007795	-370.30750355916877	4338.5426568010125	1154.804007129409	-374.24646666330904	4346.673517886022	1152.2673448671092	-377.9351342469736	4313.416251409958	1141.4745660861884	-367.6703667029698	4324.973792031563	1154.9441171657068	-379.1220444335259	4337.02297368782	1154.609573111604	-385.92500261746466	4345.948290566598	1150.7656952021505	-388.2400382611826	4354.303285770456	1145.1315912723742	-388.8649012412967	4312.763260709887	1131.4022273509133	-368.5037465025622	4323.681795899837	1139.0946614713907	-380.1244742642045	4336.7112029075915	1137.3447715348786	-387.619216278237	4347.422341307275	1132.04271869303	-390.44646072838003	4356.536542895121	1125.5549166044448	-391.14681436980453	4311.9675540879825	1124.021681331207	-368.8175122029074	4320.946617146717	1124.7407504029488	-379.5547491496574	4332.165059544196	1121.7870936005907	-386.14162774870306	4342.42349946504	1115.9142457753508	-388.8976324107519	4350.958410691331	1109.454594700952	-389.56983660682704	4311.026319361974	1114.5004165691344	-368.71176454599987	4318.552985438768	1109.560495972143	-378.55616523228565	4327.282075916789	1104.9630585759226	-383.8686642336113	4334.641650587829	1099.5995603311944	-385.8972720195674	4342.131418688599	1093.2559115789443	-386.50330472200574
